<?xml version="1.0" encoding="UTF-8" standalone="no"?>
<svg
   xmlns:dc="http://purl.org/dc/elements/1.1/"
   xmlns:cc="http://creativecommons.org/ns#"
   xmlns:rdf="http://www.w3.org/1999/02/22-rdf-syntax-ns#"
   xmlns:svg="http://www.w3.org/2000/svg"
   xmlns="http://www.w3.org/2000/svg"
   xmlns:sodipodi="http://sodipodi.sourceforge.net/DTD/sodipodi-0.dtd"
   xmlns:inkscape="http://www.inkscape.org/namespaces/inkscape"
   width="400"
   height="400"
   viewBox="0 0 200 200"
   version="1.1"
   id="svg855"
   sodipodi:docname="darts.svg"
   inkscape:version="1.0.1 (c497b03c, 2020-09-10)">
  <metadata
     id="metadata861">
    <rdf:RDF>
      <cc:Work
         rdf:about="">
        <dc:format>image/svg+xml</dc:format>
        <dc:type
           rdf:resource="http://purl.org/dc/dcmitype/StillImage" />
        <dc:title></dc:title>
      </cc:Work>
    </rdf:RDF>
  </metadata>
  <defs
     id="defs859" />
  <sodipodi:namedview
     pagecolor="#ffffff"
     bordercolor="#666666"
     borderopacity="1"
     objecttolerance="10"
     gridtolerance="10"
     guidetolerance="10"
     inkscape:pageopacity="0"
     inkscape:pageshadow="2"
     inkscape:window-width="1440"
     inkscape:window-height="790"
     id="namedview857"
     showgrid="false"
     inkscape:snap-global="false"
     inkscape:zoom="1.191013"
     inkscape:cx="320.7574"
     inkscape:cy="211.37886"
     inkscape:window-x="0"
     inkscape:window-y="23"
     inkscape:window-maximized="0"
     inkscape:current-layer="g853" />
  <g
     transform="translate(-10.116615,-34.324081)"
     id="g853">@click=&quot;$emit('hit', '20')&quot;
    /&gt;
    <path
   id="20"
   style="fill:#000000;fill-opacity:1;stroke:none;stroke-width:0.465"
   sodipodi:type="arc"
   sodipodi:arc-type="slice"
   sodipodi:start="4.5553093"
   sodipodi:end="4.8694686"
   sodipodi:ry="75"
   sodipodi:rx="75"
   sodipodi:cy="134.32408"
   sodipodi:cx="110.11662"
   d="m 98.384035,60.247456 a 75,75 0 0 1 23.465175,0 l -11.73259,74.076624 z" />
<path
   id="1"
   style="fill:#e7dfc7;fill-opacity:1;stroke:none;stroke-width:0.465"
   sodipodi:type="arc"
   sodipodi:arc-type="slice"
   sodipodi:start="4.8694686"
   sodipodi:end="5.1836279"
   sodipodi:ry="75"
   sodipodi:rx="75"
   sodipodi:cy="134.32408"
   sodipodi:cx="110.11662"
   d="m 121.84921,60.247456 a 75,75 0 0 1 22.3167,7.251137 l -34.04929,66.825487 z" />
<path
   id="18"
   style="fill:#000000;fill-opacity:1;stroke:none;stroke-width:0.465"
   sodipodi:type="arc"
   sodipodi:arc-type="slice"
   sodipodi:start="5.1836279"
   sodipodi:end="5.4977871"
   sodipodi:ry="75"
   sodipodi:rx="75"
   sodipodi:cy="134.32408"
   sodipodi:cx="110.11662"
   d="m 144.16591,67.498593 a 75,75 0 0 1 18.98372,13.792478 l -53.03301,53.033009 z" />
<path
   id="4"
   style="fill:#e7dfc7;fill-opacity:1;stroke:none;stroke-width:0.465"
   sodipodi:type="arc"
   sodipodi:cx="110.11662"
   sodipodi:cy="134.32408"
   sodipodi:rx="75"
   sodipodi:ry="75"
   sodipodi:start="5.4977871"
   sodipodi:end="5.8119464"
   sodipodi:arc-type="slice"
   d="m 163.14963,81.291071 a 75,75 0 0 1 13.79248,18.983719 l -66.82549,34.04929 z" />
<path
   id="13"
   style="fill:#000000;fill-opacity:1;stroke:none;stroke-width:0.465"
   sodipodi:type="arc"
   sodipodi:arc-type="slice"
   sodipodi:start="5.8119464"
   sodipodi:end="6.1261057"
   sodipodi:ry="75"
   sodipodi:rx="75"
   sodipodi:cy="134.32408"
   sodipodi:cx="110.11662"
   d="m 176.94211,100.27479 a 75,75 0 0 1 7.25114,22.31671 l -74.07663,11.73258 z" />
<path
   id="6"
   style="fill:#e7dfc7;fill-opacity:1;stroke:none;stroke-width:0.465"
   sodipodi:type="arc"
   sodipodi:arc-type="slice"
   sodipodi:start="6.1261057"
   sodipodi:end="0.15707963"
   sodipodi:ry="75"
   sodipodi:rx="75"
   sodipodi:cy="134.32408"
   sodipodi:cx="110.11662"
   d="m 184.19325,122.5915 a 75,75 0 0 1 0,23.46517 l -74.07663,-11.73259 z" />
<path
   id="10"
   style="fill:#000000;fill-opacity:1;stroke:none;stroke-width:0.465"
   sodipodi:type="arc"
   sodipodi:arc-type="slice"
   sodipodi:start="0.15707963"
   sodipodi:end="0.4712389"
   sodipodi:ry="75"
   sodipodi:rx="75"
   sodipodi:cy="134.32408"
   sodipodi:cx="110.11662"
   d="m 184.19325,146.05667 a 75,75 0 0 1 -7.25114,22.3167 l -66.82549,-34.04929 z" />
<path
   id="15"
   style="fill:#e7dfc7;fill-opacity:1;stroke:none;stroke-width:0.465"
   sodipodi:type="arc"
   sodipodi:arc-type="slice"
   sodipodi:start="0.4712389"
   sodipodi:end="0.78539816"
   sodipodi:ry="75"
   sodipodi:rx="75"
   sodipodi:cy="134.32408"
   sodipodi:cx="110.11662"
   d="m 176.94211,168.37337 a 75,75 0 0 1 -13.79248,18.98372 l -53.03301,-53.03301 z" />
<path
   id="2"
   style="fill:#000000;fill-opacity:1;stroke:none;stroke-width:0.465"
   sodipodi:type="arc"
   sodipodi:arc-type="slice"
   sodipodi:start="0.78539816"
   sodipodi:end="1.0995574"
   sodipodi:ry="75"
   sodipodi:rx="75"
   sodipodi:cy="134.32408"
   sodipodi:cx="110.11662"
   d="m 163.14963,187.35709 a 75,75 0 0 1 -18.98372,13.79248 l -34.04929,-66.82549 z" />
<path
   id="17"
   style="fill:#e7dfc7;fill-opacity:1;stroke:none;stroke-width:0.465"
   sodipodi:type="arc"
   sodipodi:arc-type="slice"
   sodipodi:start="1.0995574"
   sodipodi:end="1.4137167"
   sodipodi:ry="75"
   sodipodi:rx="75"
   sodipodi:cy="134.32408"
   sodipodi:cx="110.11662"
   d="m 144.16591,201.14957 a 75,75 0 0 1 -22.3167,7.25114 l -11.73259,-74.07663 z" />
<path
   id="3"
   style="fill:#000000;fill-opacity:1;stroke:none;stroke-width:0.465"
   sodipodi:type="arc"
   sodipodi:arc-type="slice"
   sodipodi:start="1.4137167"
   sodipodi:end="1.727876"
   sodipodi:ry="75"
   sodipodi:rx="75"
   sodipodi:cy="134.32408"
   sodipodi:cx="110.11662"
   d="m 121.84921,208.40071 a 75,75 0 0 1 -23.465175,0 l 11.732585,-74.07663 z" />
<path
   id="19"
   style="fill:#e7dfc7;fill-opacity:1;stroke:none;stroke-width:0.465"
   sodipodi:type="arc"
   sodipodi:arc-type="slice"
   sodipodi:start="1.727876"
   sodipodi:end="2.0420352"
   sodipodi:ry="75"
   sodipodi:rx="75"
   sodipodi:cy="134.32408"
   sodipodi:cx="110.11662"
   d="M 98.384035,208.40071 A 75,75 0 0 1 76.067337,201.14957 L 110.11662,134.32408 Z" />
<path
   id="7"
   style="fill:#000000;fill-opacity:1;stroke:none;stroke-width:0.465"
   sodipodi:type="arc"
   sodipodi:arc-type="slice"
   sodipodi:start="2.0420352"
   sodipodi:end="2.3561945"
   sodipodi:ry="75"
   sodipodi:rx="75"
   sodipodi:cy="134.32408"
   sodipodi:cx="110.11662"
   d="M 76.067337,201.14957 A 75,75 0 0 1 57.083614,187.35709 l 53.033006,-53.03301 z" />
<path
   id="16"
   style="fill:#e7dfc7;fill-opacity:1;stroke:none;stroke-width:0.465"
   sodipodi:type="arc"
   sodipodi:arc-type="slice"
   sodipodi:start="2.3561945"
   sodipodi:end="2.6703538"
   sodipodi:ry="75"
   sodipodi:rx="75"
   sodipodi:cy="134.32408"
   sodipodi:cx="110.11662"
   d="M 57.083614,187.35709 A 75,75 0 0 1 43.291132,168.37337 l 66.825488,-34.04929 z" />
<path
   id="8"
   style="fill:#000000;fill-opacity:1;stroke:none;stroke-width:0.465"
   sodipodi:type="arc"
   sodipodi:arc-type="slice"
   sodipodi:start="2.6703538"
   sodipodi:end="2.984513"
   sodipodi:ry="75"
   sodipodi:rx="75"
   sodipodi:cy="134.32408"
   sodipodi:cx="110.11662"
   d="m 43.291132,168.37337 a 75,75 0 0 1 -7.251134,-22.3167 l 74.076622,-11.73259 z" />
<path
   id="11"
   style="fill:#e7dfc7;fill-opacity:1;stroke:none;stroke-width:0.465"
   sodipodi:type="arc"
   sodipodi:arc-type="slice"
   sodipodi:start="2.984513"
   sodipodi:end="3.2986723"
   sodipodi:ry="75"
   sodipodi:rx="75"
   sodipodi:cy="134.32408"
   sodipodi:cx="110.11662"
   d="m 36.039998,146.05667 a 75,75 0 0 1 0,-23.46517 l 74.076622,11.73258 z" />
<path
   id="14"
   style="fill:#000000;fill-opacity:1;stroke:none;stroke-width:0.465"
   sodipodi:type="arc"
   sodipodi:arc-type="slice"
   sodipodi:start="3.2986723"
   sodipodi:end="3.6128316"
   sodipodi:ry="75"
   sodipodi:rx="75"
   sodipodi:cy="134.32408"
   sodipodi:cx="110.11662"
   d="m 36.039998,122.5915 a 75,75 0 0 1 7.251137,-22.31671 l 66.825485,34.04929 z" />
<path
   id="9"
   style="fill:#e7dfc7;fill-opacity:1;stroke:none;stroke-width:0.465"
   sodipodi:type="arc"
   sodipodi:arc-type="slice"
   sodipodi:start="3.6128316"
   sodipodi:end="3.9269908"
   sodipodi:ry="75"
   sodipodi:rx="75"
   sodipodi:cy="134.32408"
   sodipodi:cx="110.11662"
   d="M 43.291135,100.27479 A 75,75 0 0 1 57.083613,81.291074 l 53.033007,53.033006 z" />
<path
   id="12"
   style="fill:#000000;fill-opacity:1;stroke:none;stroke-width:0.465"
   sodipodi:type="arc"
   sodipodi:arc-type="slice"
   sodipodi:start="3.9269908"
   sodipodi:end="4.2411501"
   sodipodi:ry="75"
   sodipodi:rx="75"
   sodipodi:cy="134.32408"
   sodipodi:cx="110.11662"
   d="M 57.083613,81.291074 A 75,75 0 0 1 76.067337,67.498592 l 34.049283,66.825488 z" />
<path
   id="5"
   style="fill:#e7dfc7;fill-opacity:1;stroke:none;stroke-width:0.465"
   sodipodi:type="arc"
   sodipodi:arc-type="slice"
   sodipodi:start="4.2411501"
   sodipodi:end="4.5553093"
   sodipodi:ry="75"
   sodipodi:rx="75"
   sodipodi:cy="134.32408"
   sodipodi:cx="110.11662"
   d="M 76.067337,67.498592 A 75,75 0 0 1 98.384035,60.247456 L 110.11662,134.32408 Z" />
<path
   id="t-20"
   style="fill:#a40000;fill-opacity:1;stroke:#d3d7cf;stroke-width:0.465"
   d="M 110.17912,59.324334 A 75,75 0 0 0 98.3842,60.248162 l 0.71386,4.507812 a 70.436345,70.436345 0 0 1 11.01856,-0.868163 70.436345,70.436345 0 0 1 11.01855,0.867187 l 0.71387,-4.506836 a 75,75 0 0 0 -11.66992,-0.923828 z" />
<path
   id="t-1"
   style="fill:#4e9a06;fill-opacity:1;stroke:#d3d7cf;stroke-width:0.465"
   d="m 121.84904,60.248162 -0.71386,4.506836 a 70.436345,70.436345 0 0 1 20.95898,6.809571 l 2.07129,-4.065431 a 75,75 0 0 0 -22.31641,-7.250976 z" />
<path
   id="t-18"
   style="fill:#a40000;fill-opacity:1;stroke:#d3d7cf;stroke-width:0.465"
   d="m 144.16545,67.499138 -2.0713,4.06543 a 70.436345,70.436345 0 0 1 17.82813,12.954102 l 3.22754,-3.227539 A 75,75 0 0 0 144.16545,67.499138 Z" />
<path
   id="t-4"
   style="fill:#4e9a06;fill-opacity:1;stroke:#d3d7cf;stroke-width:0.465"
   d="m 163.14983,81.291131 -3.22754,3.227539 a 70.436345,70.436345 0 0 1 12.95312,17.82813 l 4.06641,-2.07129 A 75,75 0 0 0 163.14983,81.291131 Z" />
<path
   id="t-13"
   style="fill:#a40000;fill-opacity:1;stroke:#d3d7cf;stroke-width:0.465;stroke-miterlimit:4;stroke-dasharray:none"
   d="m 176.94182,100.27551 -4.06641,2.07129 a 70.436345,70.436345 0 0 1 6.80957,20.95898 l 4.50781,-0.71387 a 75,75 0 0 0 -7.25097,-22.3164 z" />
<path
   id="t-6"
   style="fill:#4e9a06;fill-opacity:1;stroke:#d3d7cf;stroke-width:0.465"
   d="m 184.19279,122.59191 -4.50781,0.71387 a 70.436345,70.436345 0 0 1 0.86817,11.01855 70.436345,70.436345 0 0 1 -0.86719,11.01856 l 4.50683,0.71386 a 75,75 0 0 0 0,-23.46484 z" />
<path
   id="t-10"
   style="fill:#a40000;fill-opacity:1;stroke:#d3d7cf;stroke-width:0.465"
   d="m 179.68596,145.34289 a 70.436345,70.436345 0 0 1 -6.80957,20.95898 l 4.06543,2.07129 a 75,75 0 0 0 7.25097,-22.31641 z" />
<path
   id="t-15"
   style="fill:#4e9a06;fill-opacity:1;stroke:#d3d7cf;stroke-width:0.465"
   d="M 172.87639,166.30187 A 70.436345,70.436345 0 0 1 159.92229,184.13 l 3.22754,3.22754 a 75,75 0 0 0 13.79199,-18.98438 z" />
<path
   id="t-2"
   style="fill:#a40000;fill-opacity:1;stroke:#d3d7cf;stroke-width:0.465"
   d="m 159.92228,184.13 a 70.436345,70.436345 0 0 1 -17.82812,12.95312 l 2.07129,4.06641 a 75,75 0 0 0 18.98437,-13.79199 z" />
<path
   id="t-17"
   style="fill:#4e9a06;fill-opacity:1;stroke:#d3d7cf;stroke-width:0.465"
   d="m 142.09416,197.08312 a 70.436345,70.436345 0 0 1 -20.95898,6.80957 l 0.71386,4.50781 a 75,75 0 0 0 22.31641,-7.25097 z" />
<path
   id="t-3"
   style="fill:#a40000;fill-opacity:1;stroke:#d3d7cf;stroke-width:0.465"
   d="m 121.13518,203.89269 a 70.436345,70.436345 0 0 1 -11.01856,0.86817 70.436345,70.436345 0 0 1 -11.018555,-0.86719 L 98.3842,208.4005 a 75,75 0 0 0 23.46484,0 z" />
<path
   id="t-19"
   style="fill:#4e9a06;fill-opacity:1;stroke:#d3d7cf;stroke-width:0.465"
   d="m 78.13908,197.0841 -2.07129,4.06543 a 75,75 0 0 0 22.31641,7.25097 l 0.713865,-4.50683 A 70.436345,70.436345 0 0 1 78.13908,197.0841 Z" />
<path
   id="t-7"
   style="fill:#a40000;fill-opacity:1;stroke:#d3d7cf;stroke-width:0.465"
   d="m 60.310955,184.13 -3.22754,3.22754 a 75,75 0 0 0 18.984375,13.79199 l 2.07129,-4.06543 A 70.436345,70.436345 0 0 1 60.310955,184.13 Z" />
<path
   id="t-16"
   style="fill:#4e9a06;fill-opacity:1;stroke:#d3d7cf;stroke-width:0.465"
   d="m 47.35783,166.30187 -4.066405,2.07129 a 75,75 0 0 0 13.79199,18.98438 L 60.310955,184.13 A 70.436345,70.436345 0 0 1 47.35783,166.30187 Z" />
<path
   id="t-8"
   style="fill:#a40000;fill-opacity:1;stroke:#d3d7cf;stroke-width:0.465"
   d="m 40.54826,145.34289 -4.50781,0.71386 a 75,75 0 0 0 7.250975,22.31641 l 4.066405,-2.07129 a 70.436345,70.436345 0 0 1 -6.80957,-20.95898 z" />
<path
   id="t-11"
   style="fill:#4e9a06;fill-opacity:1;stroke:#d3d7cf;stroke-width:0.465"
   d="m 36.04045,122.59191 a 75,75 0 0 0 0,23.46484 l 4.50781,-0.71386 a 70.436345,70.436345 0 0 1 -0.868165,-11.01856 70.436345,70.436345 0 0 1 0.86719,-11.01855 z" />
<path
   id="t-14"
   style="fill:#a40000;fill-opacity:1;stroke:#d3d7cf;stroke-width:0.465"
   d="m 43.291425,100.27551 a 75,75 0 0 0 -7.250975,22.3164 l 4.506835,0.71387 a 70.436345,70.436345 0 0 1 6.80957,-20.95899 z" />
<path
   id="t-9"
   style="fill:#4e9a06;fill-opacity:1;stroke:#d3d7cf;stroke-width:0.465"
   d="m 57.083415,81.291131 a 75,75 0 0 0 -13.79199,18.984379 l 4.06543,2.07129 a 70.436345,70.436345 0 0 1 12.9541,-17.82813 z" />
<path
   id="t-12"
   style="fill:#a40000;fill-opacity:1;stroke:#d3d7cf;stroke-width:0.465"
   d="M 76.06779,67.499138 A 75,75 0 0 0 57.083415,81.291131 l 3.22754,3.227539 A 70.436345,70.436345 0 0 1 78.13908,71.565545 Z" />
<path
   id="t-5"
   style="fill:#4e9a06;fill-opacity:1;stroke:#d3d7cf;stroke-width:0.465"
   d="m 98.3842,60.248162 a 75,75 0 0 0 -22.31641,7.250976 l 2.07129,4.066407 a 70.436345,70.436345 0 0 1 20.958985,-6.809571 z" />
<path
   id="d-20"
   style="fill:#a40000;fill-opacity:1;stroke:#d3d7cf;stroke-width:0.465"
   d="m 110.11662,92.533066 a 41.790233,41.790233 0 0 0 -6.53711,0.51465 l 0.67188,4.242185 a 37.496566,37.496566 0 0 1 5.82226,-0.461915 37.496566,37.496566 0 0 1 0.043,0 37.496566,37.496566 0 0 1 5.86524,0.461915 l 0.67187,-4.242185 a 41.790233,41.790233 0 0 0 -6.53709,-0.51465 z" />
<path
   id="d-1"
   style="fill:#4e9a06;fill-opacity:1;stroke:#d3d7cf;stroke-width:0.465"
   d="m 116.65373,93.047716 -0.67188,4.242185 a 37.496566,37.496566 0 0 1 11.15723,3.624999 l 1.95019,-3.827149 a 41.790233,41.790233 0 0 0 -12.43554,-4.040035 z" />
<path
   id="d-18"
   style="fill:#a40000;fill-opacity:1;stroke:#d3d7cf;stroke-width:0.465"
   d="m 129.08927,97.087751 -1.95019,3.827149 a 37.496566,37.496566 0 0 1 9.49121,6.89551 l 3.03711,-3.03711 a 41.790233,41.790233 0 0 0 -10.57813,-7.685549 z" />
<path
   id="d-4"
   style="fill:#4e9a06;fill-opacity:1;stroke:#d3d7cf;stroke-width:0.465"
   d="m 139.6674,104.7733 -3.03711,3.03711 a 37.496566,37.496566 0 0 1 6.89551,9.49121 l 3.82715,-1.95019 A 41.790233,41.790233 0 0 0 139.6674,104.7733 Z" />
<path
   id="d-13"
   style="fill:#a40000;fill-opacity:1;stroke:#d3d7cf;stroke-width:0.465"
   d="m 147.35295,115.35143 -3.82715,1.95019 a 37.496566,37.496566 0 0 1 3.625,11.15723 l 4.24218,-0.67188 a 41.790233,41.790233 0 0 0 -4.04003,-12.43554 z" />
<path
   id="d-6"
   style="fill:#4e9a06;fill-opacity:1;stroke:#d3d7cf;stroke-width:0.465"
   d="m 151.39298,127.78697 -4.24218,0.67188 a 37.496566,37.496566 0 0 1 0.46192,5.86523 37.496566,37.496566 0 0 1 -0.46192,5.86524 l 4.24219,0.67187 a 41.790233,41.790233 0 0 0 0.51465,-6.53711 41.790233,41.790233 0 0 0 -0.51466,-6.53711 z" />
<path
   id="d-10"
   style="fill:#a40000;fill-opacity:1;stroke:#d3d7cf;stroke-width:0.465"
   d="m 147.1508,140.18932 a 37.496566,37.496566 0 0 1 -3.625,11.15722 l 3.82715,1.9502 a 41.790233,41.790233 0 0 0 4.04003,-12.43555 z" />
<path
   id="d-15"
   style="fill:#4e9a06;fill-opacity:1;stroke:#d3d7cf;stroke-width:0.465"
   d="m 143.5258,151.34654 a 37.496566,37.496566 0 0 1 -6.89551,9.49121 l 3.03711,3.03711 a 41.790233,41.790233 0 0 0 7.68555,-10.57812 z" />
<path
   id="d-2"
   style="fill:#a40000;fill-opacity:1;stroke:#d3d7cf;stroke-width:0.465"
   d="m 136.63029,160.83775 a 37.496566,37.496566 0 0 1 -9.49121,6.89551 l 1.95019,3.82715 a 41.790233,41.790233 0 0 0 10.57813,-7.68555 z" />
<path
   id="d-17"
   style="fill:#4e9a06;fill-opacity:1;stroke:#d3d7cf;stroke-width:0.465"
   d="m 127.13908,167.73326 a 37.496566,37.496566 0 0 1 -11.15722,3.625 l 0.67187,4.24219 a 41.790233,41.790233 0 0 0 12.43555,-4.04004 z" />
<path
   id="d-3"
   style="fill:#a40000;fill-opacity:1;stroke:#d3d7cf;stroke-width:0.465"
   d="m 104.25139,171.35826 -0.67188,4.24219 a 41.790233,41.790233 0 0 0 6.53711,0.51465 41.790233,41.790233 0 0 0 6.53711,-0.51465 l -0.67188,-4.24219 a 37.496566,37.496566 0 0 1 -5.86523,0.46192 37.496566,37.496566 0 0 1 -5.86523,-0.46192 z" />
<path
   id="d-19"
   style="fill:#4e9a06;fill-opacity:1;stroke:#d3d7cf;stroke-width:0.465"
   d="m 93.09416,167.73326 -1.950195,3.82715 a 41.790233,41.790233 0 0 0 12.435545,4.04004 l 0.67187,-4.24219 a 37.496566,37.496566 0 0 1 -11.15722,-3.625 z" />
<path
   id="d-7"
   style="fill:#a40000;fill-opacity:1;stroke:#d3d7cf;stroke-width:0.465"
   d="m 83.60295,160.83775 -3.03711,3.03711 a 41.790233,41.790233 0 0 0 10.578125,7.68555 l 1.950195,-3.82715 a 37.496566,37.496566 0 0 1 -9.49121,-6.89551 z" />
<path
   id="d-16"
   style="fill:#4e9a06;fill-opacity:1;stroke:#d3d7cf;stroke-width:0.465"
   d="m 76.70744,151.34654 -3.82715,1.9502 a 41.790233,41.790233 0 0 0 7.68555,10.57812 l 3.03711,-3.03711 a 37.496566,37.496566 0 0 1 -6.89551,-9.49121 z" />
<path
   id="d-8"
   style="fill:#a40000;fill-opacity:1;stroke:#d3d7cf;stroke-width:0.465"
   d="m 73.08244,140.18932 -4.242185,0.67187 a 41.790233,41.790233 0 0 0 4.040035,12.43555 l 3.82715,-1.9502 a 37.496566,37.496566 0 0 1 -3.625,-11.15722 z" />
<path
   id="d-11"
   style="fill:#4e9a06;fill-opacity:1;stroke:#d3d7cf;stroke-width:0.465"
   d="m 68.840255,127.78697 a 41.790233,41.790233 0 0 0 -0.51465,6.53711 41.790233,41.790233 0 0 0 0.51465,6.53711 l 4.242185,-0.67187 a 37.496566,37.496566 0 0 1 -0.461915,-5.86524 37.496566,37.496566 0 0 1 0.461915,-5.86523 z" />
<path
   id="d-14"
   style="fill:#a40000;fill-opacity:1;stroke:#d3d7cf;stroke-width:0.465"
   d="m 72.88029,115.35143 a 41.790233,41.790233 0 0 0 -4.040035,12.43554 l 4.242185,0.67188 a 37.496566,37.496566 0 0 1 3.625,-11.15723 z" />
<path
   id="d-9"
   style="fill:#4e9a06;fill-opacity:1;stroke:#d3d7cf;stroke-width:0.465"
   d="m 80.56584,104.7733 a 41.790233,41.790233 0 0 0 -7.68555,10.57813 l 3.82715,1.95019 a 37.496566,37.496566 0 0 1 6.89551,-9.49121 z" />
<path
   id="path1031"
   style="fill:#a40000;fill-opacity:1;stroke:#d3d7cf;stroke-width:0.465"
   d="M 91.143965,97.087751 A 41.790233,41.790233 0 0 0 80.56584,104.7733 l 3.03711,3.03711 a 37.496566,37.496566 0 0 1 9.49121,-6.89551 z" />
<path
   id="d-5"
   style="fill:#4e9a06;fill-opacity:1;stroke:#d3d7cf;stroke-width:0.465"
   d="m 103.57951,93.047716 a 41.790233,41.790233 0 0 0 -12.435545,4.040035 l 1.950195,3.827149 a 37.496566,37.496566 0 0 1 11.15723,-3.624999 z" />
<text
   xml:space="preserve"
   style="font-style:normal;font-weight:normal;font-size:13.3333px;line-height:1.25;font-family:sans-serif;letter-spacing:-1.5px;fill:#000000;fill-opacity:1;stroke:none;stroke-width:0.5"
   x="131.38084"
   y="58.314617"
   id="text1487"><tspan
     sodipodi:role="line"
     id="tspan1485"
     x="131.38084"
     y="58.314617"
     style="font-style:normal;font-variant:normal;font-weight:normal;font-stretch:normal;font-size:13.3333px;font-family:'Arial Hebrew';-inkscape-font-specification:'Arial Hebrew';stroke-width:0.5">1</tspan></text>
<text
   xml:space="preserve"
   style="font-style:normal;font-weight:normal;font-size:13.3333px;line-height:1.25;font-family:sans-serif;letter-spacing:-1.5px;fill:#000000;fill-opacity:1;stroke:none;stroke-width:0.5"
   x="154.31006"
   y="205.29555"
   id="text1527"><tspan
     sodipodi:role="line"
     id="tspan1525"
     x="154.31006"
     y="205.29555"
     style="font-style:normal;font-variant:normal;font-weight:normal;font-stretch:normal;font-size:13.3333px;font-family:'Arial Hebrew';-inkscape-font-specification:'Arial Hebrew';stroke-width:0.5">2</tspan></text>
<text
   xml:space="preserve"
   style="font-style:normal;font-weight:normal;font-size:13.3333px;line-height:1.25;font-family:sans-serif;letter-spacing:-1.5px;fill:#000000;fill-opacity:1;stroke:none;stroke-width:0.5"
   x="106.09315"
   y="221.25781"
   id="text1531"><tspan
     sodipodi:role="line"
     id="tspan1529"
     x="106.09315"
     y="221.25781"
     style="font-style:normal;font-variant:normal;font-weight:normal;font-stretch:normal;font-size:13.3333px;font-family:'Arial Hebrew';-inkscape-font-specification:'Arial Hebrew';stroke-width:0.5">3</tspan></text>
<text
   xml:space="preserve"
   style="font-style:normal;font-weight:normal;font-size:13.3333px;line-height:1.25;font-family:sans-serif;letter-spacing:-1.5px;fill:#000000;fill-opacity:1;stroke:none;stroke-width:0.5"
   x="174.46097"
   y="87.927864"
   id="text1535"><tspan
     sodipodi:role="line"
     id="tspan1533"
     x="174.46097"
     y="87.927864"
     style="font-style:normal;font-variant:normal;font-weight:normal;font-stretch:normal;font-size:13.3333px;font-family:'Arial Hebrew';-inkscape-font-specification:'Arial Hebrew';stroke-width:0.5">4</tspan></text>
<text
   xml:space="preserve"
   style="font-style:normal;font-weight:normal;font-size:13.3333px;line-height:1.25;font-family:sans-serif;letter-spacing:-1.5px;fill:#000000;fill-opacity:1;stroke:none;stroke-width:0.5"
   x="81.583755"
   y="58.550594"
   id="text1539"><tspan
     sodipodi:role="line"
     id="tspan1537"
     x="81.583755"
     y="58.550594"
     style="font-style:normal;font-variant:normal;font-weight:normal;font-stretch:normal;font-size:13.3333px;font-family:'Arial Hebrew';-inkscape-font-specification:'Arial Hebrew';stroke-width:0.5">5</tspan></text>
<text
   xml:space="preserve"
   style="font-style:normal;font-weight:normal;font-size:13.33333334px;line-height:1.25;font-family:sans-serif;letter-spacing:-1.50000000000000000px;fill:#000000;fill-opacity:1;stroke:none;stroke-width:0.5;"
   x="188.4751"
   y="138.84296"
   id="text1543"><tspan
     sodipodi:role="line"
     id="tspan1541"
     x="188.4751"
     y="138.84296"
     style="font-style:normal;font-variant:normal;font-weight:normal;font-stretch:normal;font-family:'Arial Hebrew';-inkscape-font-specification:'Arial Hebrew';stroke-width:0.5;font-size:13.33333334px;">6</tspan></text>
<text
   xml:space="preserve"
   style="font-style:normal;font-weight:normal;font-size:13.3333px;line-height:1.25;font-family:sans-serif;letter-spacing:-1.5px;fill:#000000;fill-opacity:1;stroke:none;stroke-width:0.5"
   x="58.975304"
   y="205.9608"
   id="text1547"><tspan
     sodipodi:role="line"
     id="tspan1545"
     x="58.975304"
     y="205.9608"
     style="font-style:normal;font-variant:normal;font-weight:normal;font-stretch:normal;font-size:13.3333px;font-family:'Arial Hebrew';-inkscape-font-specification:'Arial Hebrew';stroke-width:0.5">7</tspan></text>
<text
   xml:space="preserve"
   style="font-style:normal;font-weight:normal;font-size:13.3333px;line-height:1.25;font-family:sans-serif;letter-spacing:-1.5px;fill:#000000;fill-opacity:1;stroke:none;stroke-width:0.5"
   x="27.489502"
   y="164.82883"
   id="text1551"><tspan
     sodipodi:role="line"
     id="tspan1549"
     x="27.489502"
     y="164.82883"
     style="font-style:normal;font-variant:normal;font-weight:normal;font-stretch:normal;font-size:13.3333px;font-family:'Arial Hebrew';-inkscape-font-specification:'Arial Hebrew';stroke-width:0.5">8</tspan></text>
<text
   xml:space="preserve"
   style="font-style:normal;font-weight:normal;font-size:13.3333px;line-height:1.25;font-family:sans-serif;letter-spacing:-1.5px;fill:#000000;fill-opacity:1;stroke:none;stroke-width:0.5"
   x="38.343254"
   y="88.173309"
   id="text1555"><tspan
     sodipodi:role="line"
     id="tspan1553"
     x="38.343254"
     y="88.173309"
     style="font-style:normal;font-variant:normal;font-weight:normal;font-stretch:normal;font-size:13.3333px;font-family:'Arial Hebrew';-inkscape-font-specification:'Arial Hebrew';stroke-width:0.5">9</tspan></text>
<text
   xml:space="preserve"
   style="font-style:normal;font-weight:normal;font-size:13.33333334px;line-height:1.25;font-family:sans-serif;letter-spacing:-1.50000000000000000px;fill:#000000;fill-opacity:1;stroke:none;stroke-width:0.5;"
   x="182.17793"
   y="166.78642"
   id="text1559"><tspan
     sodipodi:role="line"
     id="tspan1557"
     x="182.17793"
     y="166.78642"
     style="font-style:normal;font-variant:normal;font-weight:normal;font-stretch:normal;font-family:'Arial Hebrew';-inkscape-font-specification:'Arial Hebrew';stroke-width:0.5;font-size:13.33333334px;">10</tspan></text>
<text
   xml:space="preserve"
   style="font-style:normal;font-weight:normal;font-size:13.3333px;line-height:1.25;font-family:sans-serif;letter-spacing:-1.5px;fill:#000000;fill-opacity:1;stroke:none;stroke-width:0.5"
   x="104.02716"
   y="54.277164"
   id="text1571"><tspan
     sodipodi:role="line"
     id="tspan1569"
     x="104.02716"
     y="54.277164"
     style="font-style:normal;font-variant:normal;font-weight:normal;font-stretch:normal;font-size:13.3333px;font-family:'Arial Hebrew';-inkscape-font-specification:'Arial Hebrew';stroke-width:0.5">20</tspan></text>
<text
   xml:space="preserve"
   style="font-style:normal;font-weight:normal;font-size:13.3333px;line-height:1.25;font-family:sans-serif;letter-spacing:-1.5px;fill:#000000;fill-opacity:1;stroke:none;stroke-width:0.5"
   x="78.640411"
   y="217.83348"
   id="text1575"><tspan
     sodipodi:role="line"
     id="tspan1573"
     x="78.640411"
     y="217.83348"
     style="font-style:normal;font-variant:normal;font-weight:normal;font-stretch:normal;font-size:13.3333px;font-family:'Arial Hebrew';-inkscape-font-specification:'Arial Hebrew';stroke-width:0.5">19</tspan></text>
<text
   xml:space="preserve"
   style="font-style:normal;font-weight:normal;font-size:13.33333334px;line-height:1.25;font-family:sans-serif;letter-spacing:-1.50000000000000000px;fill:#000000;fill-opacity:1;stroke:none;stroke-width:0.5;"
   x="153.82425"
   y="69.272362"
   id="text1579"><tspan
     sodipodi:role="line"
     id="tspan1577"
     x="153.82425"
     y="69.272362"
     style="font-style:normal;font-variant:normal;font-weight:normal;font-stretch:normal;font-family:'Arial Hebrew';-inkscape-font-specification:'Arial Hebrew';stroke-width:0.5;font-size:13.33333334px;">18</tspan></text>
<text
   xml:space="preserve"
   style="font-style:normal;font-weight:normal;font-size:13.3333px;line-height:1.25;font-family:sans-serif;letter-spacing:-1.5px;fill:#000000;fill-opacity:1;stroke:none;stroke-width:0.5"
   x="129.21581"
   y="216.13531"
   id="text1583"><tspan
     sodipodi:role="line"
     id="tspan1581"
     x="129.21581"
     y="216.13531"
     style="font-style:normal;font-variant:normal;font-weight:normal;font-stretch:normal;font-size:13.3333px;font-family:'Arial Hebrew';-inkscape-font-specification:'Arial Hebrew';stroke-width:0.5">17</tspan></text>
<text
   xml:space="preserve"
   style="font-style:normal;font-weight:normal;font-size:13.3333px;line-height:1.25;font-family:sans-serif;letter-spacing:-1.5px;fill:#000000;fill-opacity:1;stroke:none;stroke-width:0.5"
   x="35.14048"
   y="186.64005"
   id="text1587"><tspan
     sodipodi:role="line"
     id="tspan1585"
     x="35.14048"
     y="186.64005"
     style="font-style:normal;font-variant:normal;font-weight:normal;font-stretch:normal;font-size:13.3333px;font-family:'Arial Hebrew';-inkscape-font-specification:'Arial Hebrew';stroke-width:0.5">16</tspan></text>
<text
   xml:space="preserve"
   style="font-style:normal;font-weight:normal;font-size:13.3333px;line-height:1.25;font-family:sans-serif;letter-spacing:-1.5px;fill:#000000;fill-opacity:1;stroke:none;stroke-width:0.5"
   x="170.19687"
   y="187.95134"
   id="text1591"><tspan
     sodipodi:role="line"
     id="tspan1589"
     x="170.19687"
     y="187.95134"
     style="font-style:normal;font-variant:normal;font-weight:normal;font-stretch:normal;font-size:13.3333px;font-family:'Arial Hebrew';-inkscape-font-specification:'Arial Hebrew';stroke-width:0.5">15</tspan></text>
<text
   xml:space="preserve"
   style="font-style:normal;font-weight:normal;font-size:13.3333px;line-height:1.25;font-family:sans-serif;letter-spacing:-1.5px;fill:#000000;fill-opacity:1;stroke:none;stroke-width:0.5"
   x="21.546162"
   y="112.11652"
   id="text1595"><tspan
     sodipodi:role="line"
     id="tspan1593"
     x="21.546162"
     y="112.11652"
     style="font-style:normal;font-variant:normal;font-weight:normal;font-stretch:normal;font-size:13.3333px;font-family:'Arial Hebrew';-inkscape-font-specification:'Arial Hebrew';stroke-width:0.5">14</tspan></text>
<text
   xml:space="preserve"
   style="font-style:normal;font-weight:normal;font-size:13.33333334px;line-height:1.25;font-family:sans-serif;letter-spacing:-1.50000000000000000px;fill:#000000;fill-opacity:1;stroke:none;stroke-width:0.5;"
   x="182.7912"
   y="112.008"
   id="text1599"><tspan
     sodipodi:role="line"
     id="tspan1597"
     x="182.7912"
     y="112.008"
     style="font-style:normal;font-variant:normal;font-weight:normal;font-stretch:normal;font-family:'Arial Hebrew';-inkscape-font-specification:'Arial Hebrew';stroke-width:0.5;font-size:13.33333334px;">13</tspan></text>
<text
   xml:space="preserve"
   style="font-style:normal;font-weight:normal;font-size:13.3333px;line-height:1.25;font-family:sans-serif;letter-spacing:-1.5px;fill:#000000;fill-opacity:1;stroke:none;stroke-width:0.5"
   x="53.970638"
   y="68.078796"
   id="text1603"><tspan
     sodipodi:role="line"
     id="tspan1601"
     x="53.970638"
     y="68.078796"
     style="font-style:normal;font-variant:normal;font-weight:normal;font-stretch:normal;font-size:13.3333px;font-family:'Arial Hebrew';-inkscape-font-specification:'Arial Hebrew';stroke-width:0.5">12</tspan></text>
<text
   xml:space="preserve"
   style="font-style:normal;font-weight:normal;font-size:13.3333px;line-height:1.25;font-family:sans-serif;letter-spacing:-1.5px;fill:#000000;fill-opacity:1;stroke:none;stroke-width:0.5"
   x="19.28673"
   y="137.43715"
   id="text1607"><tspan
     sodipodi:role="line"
     id="tspan1605"
     x="19.28673"
     y="137.43715"
     style="font-style:normal;font-variant:normal;font-weight:normal;font-stretch:normal;font-size:13.3333px;font-family:'Arial Hebrew';-inkscape-font-specification:'Arial Hebrew';stroke-width:0.5">11</tspan></text>
<circle
   style="opacity:1;fill:#4e9a06;stroke:#d3d7cf;stroke-width:0.465;stroke-miterlimit:4;stroke-dasharray:none"
   id="path1609"
   cx="110.11662"
   cy="134.32408"
   r="7.7707481" />
<circle
   style="opacity:1;fill:#a40000;stroke:#d3d7cf;stroke-width:0.465;stroke-miterlimit:4;stroke-dasharray:none"
   id="circle1613"
   cx="110.11662"
   cy="134.32408"
   r="4.0051408" />
</g>
</svg>
